<?xml version="1.0" encoding="UTF-8"?>
<svg id="Layer_2" data-name="Layer 2" xmlns="http://www.w3.org/2000/svg" viewBox="0 0 1906.22 2056">
  <defs>
    <style>
      .cls-1 {
        fill: #e5e8ea;
      }

      .cls-2 {
        fill: #242535;
      }

      .cls-3 {
        fill: #cc3742;
      }

      .cls-4 {
        fill: #c4cbce;
      }

      .cls-5 {
        fill: #a02a38;
      }
    </style>
  </defs>
  <g id="objects">
    <g>
      <path class="cls-1" d="m1906.22,528.3v1336.6c0,105.55-85.56,191.1-191.1,191.1H191.1c-105.55,0-191.1-85.56-191.1-191.1V528.3l21.48-52.35h1837.87l46.87,52.35Z"/>
      <path class="cls-3" d="m1906.22,340.88v187.42H0v-187.42c0-105.55,85.56-191.1,191.1-191.1h1524.02c105.55,0,191.1,85.56,191.1,191.1Z"/>
      <rect class="cls-5" x="165.53" y="255.23" width="203.99" height="120.64" rx="29.56" ry="29.56"/>
      <rect class="cls-2" x="223.4" width="93.93" height="333.98" rx="45.81" ry="45.81"/>
      <rect class="cls-5" x="508.32" y="255.23" width="203.99" height="120.64" rx="29.56" ry="29.56"/>
      <rect class="cls-2" x="566.2" width="93.93" height="333.98" rx="45.81" ry="45.81"/>
      <rect class="cls-5" x="851.12" y="255.23" width="203.99" height="120.64" rx="29.56" ry="29.56"/>
      <rect class="cls-2" x="908.99" width="93.93" height="333.98" rx="45.81" ry="45.81"/>
      <rect class="cls-5" x="1193.91" y="255.23" width="203.99" height="120.64" rx="29.56" ry="29.56"/>
      <rect class="cls-2" x="1251.79" width="93.93" height="333.98" rx="45.81" ry="45.81"/>
      <rect class="cls-5" x="1536.71" y="255.23" width="203.99" height="120.64" rx="29.56" ry="29.56"/>
      <rect class="cls-2" x="1594.58" width="93.93" height="333.98" rx="45.81" ry="45.81"/>
      <rect class="cls-4" x="429.19" y="621.45" width="174.8" height="174.8" rx="29.3" ry="29.3"/>
      <rect class="cls-4" x="1011.22" y="621.45" width="174.8" height="174.8" rx="29.3" ry="29.3"/>
      <rect class="cls-4" x="1593.24" y="621.45" width="174.8" height="174.8" rx="29.3" ry="29.3"/>
      <rect class="cls-4" x="138.18" y="621.45" width="174.8" height="174.8" rx="29.3" ry="29.3"/>
      <rect class="cls-4" x="1302.23" y="621.45" width="174.8" height="174.8" rx="29.3" ry="29.3"/>
      <rect class="cls-4" x="720.21" y="621.45" width="174.8" height="174.8" rx="29.3" ry="29.3"/>
      <rect class="cls-4" x="1011.22" y="904.65" width="174.8" height="174.8" rx="29.3" ry="29.3"/>
      <rect class="cls-4" x="1302.23" y="904.65" width="174.8" height="174.8" rx="29.3" ry="29.3"/>
      <rect class="cls-4" x="1593.24" y="904.65" width="174.8" height="174.8" rx="29.3" ry="29.3"/>
      <rect class="cls-4" x="138.18" y="904.65" width="174.8" height="174.8" rx="29.3" ry="29.3"/>
      <rect class="cls-4" x="429.19" y="904.65" width="174.8" height="174.8" rx="29.3" ry="29.3"/>
      <rect class="cls-4" x="720.21" y="904.65" width="174.8" height="174.8" rx="29.3" ry="29.3"/>
      <rect class="cls-4" x="1302.23" y="1187.85" width="174.8" height="174.8" rx="29.3" ry="29.3"/>
      <rect class="cls-4" x="1011.22" y="1187.85" width="174.8" height="174.8" rx="29.3" ry="29.3"/>
      <rect class="cls-4" x="1593.24" y="1187.85" width="174.8" height="174.8" rx="29.3" ry="29.3"/>
      <rect class="cls-4" x="720.21" y="1187.85" width="174.8" height="174.8" rx="29.3" ry="29.3"/>
      <rect class="cls-4" x="429.19" y="1187.85" width="174.8" height="174.8" rx="29.3" ry="29.3"/>
      <rect class="cls-4" x="138.18" y="1187.85" width="174.8" height="174.8" rx="29.3" ry="29.3"/>
      <rect class="cls-4" x="1011.22" y="1471.05" width="174.8" height="174.8" rx="29.3" ry="29.3"/>
      <rect class="cls-4" x="1593.24" y="1471.05" width="174.8" height="174.8" rx="29.3" ry="29.3"/>
      <rect class="cls-4" x="1302.23" y="1471.05" width="174.8" height="174.8" rx="29.3" ry="29.3"/>
      <rect class="cls-4" x="720.21" y="1471.05" width="174.8" height="174.8" rx="29.3" ry="29.3"/>
      <rect class="cls-4" x="429.19" y="1471.05" width="174.8" height="174.8" rx="29.3" ry="29.3"/>
      <rect class="cls-4" x="138.18" y="1471.05" width="174.8" height="174.8" rx="29.3" ry="29.3"/>
      <rect class="cls-4" x="138.18" y="1754.25" width="174.8" height="174.8" rx="29.3" ry="29.3"/>
      <rect class="cls-4" x="429.19" y="1754.25" width="174.8" height="174.8" rx="29.3" ry="29.3"/>
      <rect class="cls-4" x="720.21" y="1754.25" width="174.8" height="174.8" rx="29.3" ry="29.3"/>
    </g>
  </g>
</svg>